<svg width="143" height="40" viewBox="0 0 143 40" fill="none" xmlns="http://www.w3.org/2000/svg">
<rect x="0.5" y="7.5" width="101" height="26" fill="white" stroke="#CFCFCF"/>
<path d="M21.48 18.848H19.336L18.648 21.696H20.776V22.784H18.392L17.608 26H16.44L17.24 22.784H14.552L13.768 26H12.6L13.4 22.784H11.592V21.696H13.656L14.344 18.848H12.296V17.824H14.6L15.368 14.64H16.536L15.752 17.824H18.44L19.208 14.64H20.376L19.592 17.824H21.48V18.848ZM17.496 21.696L18.184 18.848H15.496L14.808 21.696H17.496ZM23.4381 26V14.64H30.9421V15.92H24.8781V19.712H29.9821V20.912H24.8781V26H23.4381ZM32.7663 26V14.64H40.2703V15.92H34.2063V19.712H39.3103V20.912H34.2063V26H32.7663ZM49.8064 24.72V26H42.0944V14.64H49.6624V15.92H43.5344V19.6H48.8624V20.8H43.5344V24.72H49.8064ZM60.5019 23.072C60.5019 23.6587 60.3525 24.1707 60.0539 24.608C59.7552 25.0453 59.3499 25.3867 58.8379 25.632C58.3365 25.8773 57.7819 26 57.1739 26H51.7819V14.64H57.4299C57.9632 14.64 58.4219 14.784 58.8059 15.072C59.2005 15.3493 59.4992 15.712 59.7019 16.16C59.9152 16.5973 60.0219 17.056 60.0219 17.536C60.0219 18.0907 59.8779 18.6133 59.5899 19.104C59.3125 19.584 58.9125 19.9413 58.3899 20.176C59.0405 20.368 59.5525 20.7253 59.9259 21.248C60.3099 21.76 60.5019 22.368 60.5019 23.072ZM59.0459 22.816C59.0459 22.464 58.9659 22.1387 58.8059 21.84C58.6565 21.5413 58.4485 21.3013 58.1819 21.12C57.9259 20.9387 57.6272 20.848 57.2859 20.848H53.2219V24.752H57.1739C57.5259 24.752 57.8405 24.6613 58.1179 24.48C58.4059 24.2987 58.6299 24.064 58.7899 23.776C58.9605 23.4773 59.0459 23.1573 59.0459 22.816ZM53.2219 15.888V19.68H56.8379C57.1792 19.68 57.4779 19.5947 57.7339 19.424C58.0005 19.2533 58.2085 19.024 58.3579 18.736C58.5179 18.448 58.5979 18.1333 58.5979 17.792C58.5979 17.4293 58.5232 17.1093 58.3739 16.832C58.2352 16.544 58.0379 16.3147 57.7819 16.144C57.5365 15.9733 57.2539 15.888 56.9339 15.888H53.2219ZM70.2283 24.72V26H62.5163V14.64H70.0843V15.92H63.9563V19.6H69.2843V20.8H63.9563V24.72H70.2283ZM72.2038 26V14.64H79.7078V15.92H73.6438V19.712H78.7478V20.912H73.6438V26H72.2038Z" fill="black"/>
<circle cx="122" cy="20" r="9.5" fill="#FFEBEF" stroke="black"/>
</svg>
