<svg width="143" height="40" viewBox="0 0 143 40" fill="none" xmlns="http://www.w3.org/2000/svg">
<rect x="0.5" y="7.5" width="101" height="26" fill="white" stroke="#CFCFCF"/>
<path d="M21.48 18.848H19.336L18.648 21.696H20.776V22.784H18.392L17.608 26H16.44L17.24 22.784H14.552L13.768 26H12.6L13.4 22.784H11.592V21.696H13.656L14.344 18.848H12.296V17.824H14.6L15.368 14.64H16.536L15.752 17.824H18.44L19.208 14.64H20.376L19.592 17.824H21.48V18.848ZM17.496 21.696L18.184 18.848H15.496L14.808 21.696H17.496ZM31.0381 21.312C31.0381 22.2507 30.8621 23.088 30.5101 23.824C30.1581 24.5493 29.6781 25.12 29.0701 25.536C28.4621 25.952 27.7688 26.16 26.9901 26.16C26.2115 26.16 25.5181 25.952 24.9101 25.536C24.3021 25.12 23.8221 24.5493 23.4701 23.824C23.1181 23.088 22.9421 22.2507 22.9421 21.312C22.9421 20.3733 23.1181 19.5413 23.4701 18.816C23.8221 18.08 24.3021 17.504 24.9101 17.088C25.5181 16.6613 26.2115 16.448 26.9901 16.448C27.7688 16.448 28.4621 16.6613 29.0701 17.088C29.6781 17.504 30.1581 18.08 30.5101 18.816C30.8621 19.5413 31.0381 20.3733 31.0381 21.312ZM29.6141 21.312C29.6141 20.608 29.5021 19.9893 29.2781 19.456C29.0541 18.9227 28.7448 18.5067 28.3501 18.208C27.9555 17.9093 27.5021 17.76 26.9901 17.76C26.4675 17.76 26.0088 17.9093 25.6141 18.208C25.2195 18.5067 24.9101 18.9227 24.6861 19.456C24.4621 19.9893 24.3501 20.608 24.3501 21.312C24.3501 22.016 24.4621 22.6347 24.6861 23.168C24.9101 23.6907 25.2195 24.1013 25.6141 24.4C26.0088 24.6987 26.4675 24.848 26.9901 24.848C27.5021 24.848 27.9555 24.6987 28.3501 24.4C28.7448 24.1013 29.0541 23.6907 29.2781 23.168C29.5021 22.6347 29.6141 22.016 29.6141 21.312ZM40.8663 21.312C40.8663 22.2507 40.6903 23.088 40.3383 23.824C39.9863 24.5493 39.5063 25.12 38.8983 25.536C38.2903 25.952 37.5969 26.16 36.8183 26.16C36.0396 26.16 35.3463 25.952 34.7383 25.536C34.1303 25.12 33.6503 24.5493 33.2983 23.824C32.9463 23.088 32.7703 22.2507 32.7703 21.312C32.7703 20.3733 32.9463 19.5413 33.2983 18.816C33.6503 18.08 34.1303 17.504 34.7383 17.088C35.3463 16.6613 36.0396 16.448 36.8183 16.448C37.5969 16.448 38.2903 16.6613 38.8983 17.088C39.5063 17.504 39.9863 18.08 40.3383 18.816C40.6903 19.5413 40.8663 20.3733 40.8663 21.312ZM39.4423 21.312C39.4423 20.608 39.3303 19.9893 39.1063 19.456C38.8823 18.9227 38.5729 18.5067 38.1783 18.208C37.7836 17.9093 37.3303 17.76 36.8183 17.76C36.2956 17.76 35.8369 17.9093 35.4423 18.208C35.0476 18.5067 34.7383 18.9227 34.5143 19.456C34.2903 19.9893 34.1783 20.608 34.1783 21.312C34.1783 22.016 34.2903 22.6347 34.5143 23.168C34.7383 23.6907 35.0476 24.1013 35.4423 24.4C35.8369 24.6987 36.2956 24.848 36.8183 24.848C37.3303 24.848 37.7836 24.6987 38.1783 24.4C38.5729 24.1013 38.8823 23.6907 39.1063 23.168C39.3303 22.6347 39.4423 22.016 39.4423 21.312ZM50.6944 21.312C50.6944 22.2507 50.5184 23.088 50.1664 23.824C49.8144 24.5493 49.3344 25.12 48.7264 25.536C48.1184 25.952 47.425 26.16 46.6464 26.16C45.8677 26.16 45.1744 25.952 44.5664 25.536C43.9584 25.12 43.4784 24.5493 43.1264 23.824C42.7744 23.088 42.5984 22.2507 42.5984 21.312C42.5984 20.3733 42.7744 19.5413 43.1264 18.816C43.4784 18.08 43.9584 17.504 44.5664 17.088C45.1744 16.6613 45.8677 16.448 46.6464 16.448C47.425 16.448 48.1184 16.6613 48.7264 17.088C49.3344 17.504 49.8144 18.08 50.1664 18.816C50.5184 19.5413 50.6944 20.3733 50.6944 21.312ZM49.2704 21.312C49.2704 20.608 49.1584 19.9893 48.9344 19.456C48.7104 18.9227 48.401 18.5067 48.0064 18.208C47.6117 17.9093 47.1584 17.76 46.6464 17.76C46.1237 17.76 45.665 17.9093 45.2704 18.208C44.8757 18.5067 44.5664 18.9227 44.3424 19.456C44.1184 19.9893 44.0064 20.608 44.0064 21.312C44.0064 22.016 44.1184 22.6347 44.3424 23.168C44.5664 23.6907 44.8757 24.1013 45.2704 24.4C45.665 24.6987 46.1237 24.848 46.6464 24.848C47.1584 24.848 47.6117 24.6987 48.0064 24.4C48.401 24.1013 48.7104 23.6907 48.9344 23.168C49.1584 22.6347 49.2704 22.016 49.2704 21.312ZM60.5225 21.312C60.5225 22.2507 60.3465 23.088 59.9945 23.824C59.6425 24.5493 59.1625 25.12 58.5545 25.536C57.9465 25.952 57.2532 26.16 56.4745 26.16C55.6958 26.16 55.0025 25.952 54.3945 25.536C53.7865 25.12 53.3065 24.5493 52.9545 23.824C52.6025 23.088 52.4265 22.2507 52.4265 21.312C52.4265 20.3733 52.6025 19.5413 52.9545 18.816C53.3065 18.08 53.7865 17.504 54.3945 17.088C55.0025 16.6613 55.6958 16.448 56.4745 16.448C57.2532 16.448 57.9465 16.6613 58.5545 17.088C59.1625 17.504 59.6425 18.08 59.9945 18.816C60.3465 19.5413 60.5225 20.3733 60.5225 21.312ZM59.0985 21.312C59.0985 20.608 58.9865 19.9893 58.7625 19.456C58.5385 18.9227 58.2292 18.5067 57.8345 18.208C57.4398 17.9093 56.9865 17.76 56.4745 17.76C55.9518 17.76 55.4932 17.9093 55.0985 18.208C54.7038 18.5067 54.3945 18.9227 54.1705 19.456C53.9465 19.9893 53.8345 20.608 53.8345 21.312C53.8345 22.016 53.9465 22.6347 54.1705 23.168C54.3945 23.6907 54.7038 24.1013 55.0985 24.4C55.4932 24.6987 55.9518 24.848 56.4745 24.848C56.9865 24.848 57.4398 24.6987 57.8345 24.4C58.2292 24.1013 58.5385 23.6907 58.7625 23.168C58.9865 22.6347 59.0985 22.016 59.0985 21.312ZM70.3506 21.312C70.3506 22.2507 70.1746 23.088 69.8226 23.824C69.4706 24.5493 68.9906 25.12 68.3826 25.536C67.7746 25.952 67.0813 26.16 66.3026 26.16C65.524 26.16 64.8306 25.952 64.2226 25.536C63.6146 25.12 63.1346 24.5493 62.7826 23.824C62.4306 23.088 62.2546 22.2507 62.2546 21.312C62.2546 20.3733 62.4306 19.5413 62.7826 18.816C63.1346 18.08 63.6146 17.504 64.2226 17.088C64.8306 16.6613 65.524 16.448 66.3026 16.448C67.0813 16.448 67.7746 16.6613 68.3826 17.088C68.9906 17.504 69.4706 18.08 69.8226 18.816C70.1746 19.5413 70.3506 20.3733 70.3506 21.312ZM68.9266 21.312C68.9266 20.608 68.8146 19.9893 68.5906 19.456C68.3666 18.9227 68.0573 18.5067 67.6626 18.208C67.268 17.9093 66.8146 17.76 66.3026 17.76C65.78 17.76 65.3213 17.9093 64.9266 18.208C64.532 18.5067 64.2226 18.9227 63.9986 19.456C63.7746 19.9893 63.6626 20.608 63.6626 21.312C63.6626 22.016 63.7746 22.6347 63.9986 23.168C64.2226 23.6907 64.532 24.1013 64.9266 24.4C65.3213 24.6987 65.78 24.848 66.3026 24.848C66.8146 24.848 67.268 24.6987 67.6626 24.4C68.0573 24.1013 68.3666 23.6907 68.5906 23.168C68.8146 22.6347 68.9266 22.016 68.9266 21.312ZM80.1788 21.312C80.1788 22.2507 80.0028 23.088 79.6508 23.824C79.2988 24.5493 78.8188 25.12 78.2108 25.536C77.6028 25.952 76.9094 26.16 76.1308 26.16C75.3521 26.16 74.6588 25.952 74.0508 25.536C73.4428 25.12 72.9628 24.5493 72.6108 23.824C72.2588 23.088 72.0828 22.2507 72.0828 21.312C72.0828 20.3733 72.2588 19.5413 72.6108 18.816C72.9628 18.08 73.4428 17.504 74.0508 17.088C74.6588 16.6613 75.3521 16.448 76.1308 16.448C76.9094 16.448 77.6028 16.6613 78.2108 17.088C78.8188 17.504 79.2988 18.08 79.6508 18.816C80.0028 19.5413 80.1788 20.3733 80.1788 21.312ZM78.7548 21.312C78.7548 20.608 78.6428 19.9893 78.4188 19.456C78.1948 18.9227 77.8854 18.5067 77.4908 18.208C77.0961 17.9093 76.6428 17.76 76.1308 17.76C75.6081 17.76 75.1494 17.9093 74.7548 18.208C74.3601 18.5067 74.0508 18.9227 73.8268 19.456C73.6028 19.9893 73.4908 20.608 73.4908 21.312C73.4908 22.016 73.6028 22.6347 73.8268 23.168C74.0508 23.6907 74.3601 24.1013 74.7548 24.4C75.1494 24.6987 75.6081 24.848 76.1308 24.848C76.6428 24.848 77.0961 24.6987 77.4908 24.4C77.8854 24.1013 78.1948 23.6907 78.4188 23.168C78.6428 22.6347 78.7548 22.016 78.7548 21.312Z" fill="black"/>
<circle cx="122" cy="20" r="9.5" fill="black" stroke="black"/>
</svg>
