<svg width="143" height="41" viewBox="0 0 143 41" fill="none" xmlns="http://www.w3.org/2000/svg">
<rect x="0.5" y="8.11462" width="101" height="25.6049" fill="white" stroke="#CFCFCF"/>
<path d="M21.48 18.5651H19.336L18.648 21.4131H20.776V22.5011H18.392L17.608 25.7171H16.44L17.24 22.5011H14.552L13.768 25.7171H12.6L13.4 22.5011H11.592V21.4131H13.656L14.344 18.5651H12.296V17.5411H14.6L15.368 14.3571H16.536L15.752 17.5411H18.44L19.208 14.3571H20.376L19.592 17.5411H21.48V18.5651ZM17.496 21.4131L18.184 18.5651H15.496L14.808 21.4131H17.496ZM28.3501 17.6851H22.5101V16.3891H30.5741L24.8621 27.7491H23.2621L28.3501 17.6851ZM37.4566 24.4371V25.7171H31.7126V24.4371H33.9846V18.1971C33.8886 18.3251 33.7393 18.4637 33.5366 18.6131C33.334 18.7517 33.1046 18.8851 32.8486 19.0131C32.5926 19.1411 32.3366 19.2477 32.0806 19.3331C31.8246 19.4077 31.59 19.4451 31.3766 19.4451V18.1011C31.6113 18.1011 31.8673 18.0371 32.1446 17.9091C32.4326 17.7704 32.71 17.6104 32.9766 17.4291C33.2433 17.2477 33.4673 17.0771 33.6486 16.9171C33.8406 16.7571 33.9526 16.6451 33.9846 16.5811H35.4246V24.4371H37.4566ZM38.5318 25.7171C38.5318 25.2904 38.5638 24.8904 38.6278 24.5171C38.7024 24.1437 38.8304 23.7864 39.0118 23.4451C39.2038 23.1037 39.4704 22.7784 39.8118 22.4691C40.1531 22.1491 40.5958 21.8397 41.1398 21.5411C41.4598 21.3597 41.7798 21.1891 42.0998 21.0291C42.4304 20.8691 42.7344 20.6984 43.0118 20.5171C43.2998 20.3357 43.5291 20.1384 43.6998 19.9251C43.8704 19.7011 43.9558 19.4451 43.9558 19.1571C43.9558 18.9117 43.8811 18.6771 43.7318 18.4531C43.5931 18.2184 43.3798 18.0317 43.0918 17.8931C42.8144 17.7437 42.4678 17.6691 42.0518 17.6691C41.7318 17.6691 41.4384 17.7117 41.1718 17.7971C40.9158 17.8824 40.6811 17.9944 40.4678 18.1331C40.2651 18.2611 40.0838 18.3997 39.9238 18.5491C39.7744 18.6877 39.6464 18.8157 39.5398 18.9331L38.6598 17.9411C38.7451 17.8451 38.8891 17.7171 39.0918 17.5571C39.2944 17.3864 39.5504 17.2157 39.8598 17.0451C40.1691 16.8744 40.5264 16.7304 40.9318 16.6131C41.3478 16.4851 41.8011 16.4211 42.2918 16.4211C42.9531 16.4211 43.5184 16.5384 43.9878 16.7731C44.4678 16.9971 44.8358 17.3064 45.0918 17.7011C45.3478 18.0851 45.4758 18.5171 45.4758 18.9971C45.4758 19.4131 45.3851 19.7757 45.2038 20.0851C45.0331 20.3944 44.8091 20.6664 44.5318 20.9011C44.2651 21.1357 43.9824 21.3384 43.6838 21.5091C43.3958 21.6691 43.1344 21.8077 42.8998 21.9251C42.4198 22.1597 42.0091 22.3731 41.6678 22.5651C41.3264 22.7571 41.0438 22.9491 40.8198 23.1411C40.6064 23.3224 40.4304 23.5144 40.2918 23.7171C40.1638 23.9197 40.0678 24.1597 40.0038 24.4371H45.6518V25.7171H38.5318ZM55.4783 24.4371V25.7171H47.7663V14.3571H55.3343V15.6371H49.2063V19.3171H54.5343V20.5171H49.2063V24.4371H55.4783ZM61.6138 27.7491V25.0451H56.4778V23.7971L62.0618 16.5811H63.0218V23.7651H64.4298V25.0451H63.0218V27.7491H61.6138ZM57.9338 23.7651H61.7578V18.7571L57.9338 23.7651ZM65.5916 20.5011C65.5916 19.7757 65.7676 19.1197 66.1196 18.5331C66.4823 17.9357 66.973 17.4611 67.5916 17.1091C68.2103 16.7571 68.8983 16.5811 69.6556 16.5811C70.477 16.5811 71.1916 16.7784 71.7996 17.1731C72.4183 17.5571 72.8983 18.1171 73.2396 18.8531C73.5916 19.5784 73.7676 20.4531 73.7676 21.4771C73.7676 22.9704 73.5916 24.2131 73.2396 25.2051C72.8876 26.1971 72.3916 26.9384 71.7516 27.4291C71.1116 27.9304 70.365 28.1811 69.5116 28.1811C68.7756 28.1811 68.1036 27.9997 67.4956 27.6371C66.8983 27.2851 66.429 26.7944 66.0876 26.1651L66.9516 25.3171C67.1863 25.8077 67.533 26.2024 67.9916 26.5011C68.461 26.7997 68.973 26.9491 69.5276 26.9491C70.1143 26.9491 70.621 26.7731 71.0476 26.4211C71.485 26.0691 71.821 25.5624 72.0556 24.9011C72.301 24.2397 72.429 23.4397 72.4396 22.5011C72.2903 22.8637 72.0663 23.1837 71.7676 23.4611C71.4796 23.7384 71.1436 23.9517 70.7596 24.1011C70.3756 24.2504 69.9596 24.3251 69.5116 24.3251C68.7863 24.3251 68.125 24.1544 67.5276 23.8131C66.9303 23.4717 66.4556 23.0131 66.1036 22.4371C65.7623 21.8611 65.5916 21.2157 65.5916 20.5011ZM69.6396 17.7971C69.149 17.7971 68.6956 17.9197 68.2796 18.1651C67.8743 18.4104 67.549 18.7357 67.3036 19.1411C67.0583 19.5464 66.9356 19.9997 66.9356 20.5011C66.9356 20.9917 67.0583 21.4397 67.3036 21.8451C67.549 22.2504 67.8743 22.5757 68.2796 22.8211C68.6956 23.0664 69.149 23.1891 69.6396 23.1891C70.141 23.1891 70.5943 23.0664 70.9996 22.8211C71.405 22.5757 71.7303 22.2504 71.9756 21.8451C72.221 21.4397 72.3436 20.9917 72.3436 20.5011C72.3436 20.0104 72.221 19.5624 71.9756 19.1571C71.7303 18.7411 71.3996 18.4104 70.9836 18.1651C70.5783 17.9197 70.1303 17.7971 69.6396 17.7971Z" fill="black"/>
<path d="M131.5 20.4244C131.5 25.5834 127.254 29.7781 122 29.7781C116.746 29.7781 112.5 25.5834 112.5 20.4244C112.5 15.2654 116.746 11.0707 122 11.0707C127.254 11.0707 131.5 15.2654 131.5 20.4244Z" fill="#712E49" stroke="black"/>
</svg>
