<svg width="143" height="40" viewBox="0 0 143 40" fill="none" xmlns="http://www.w3.org/2000/svg">
<rect x="0.5" y="7.70001" width="101" height="25.6049" fill="white" stroke="#CFCFCF"/>
<path d="M21.48 18.1504H19.336L18.648 20.9984H20.776V22.0864H18.392L17.608 25.3024H16.44L17.24 22.0864H14.552L13.768 25.3024H12.6L13.4 22.0864H11.592V20.9984H13.656L14.344 18.1504H12.296V17.1264H14.6L15.368 13.9424H16.536L15.752 17.1264H18.44L19.208 13.9424H20.376L19.592 17.1264H21.48V18.1504ZM17.496 20.9984L18.184 18.1504H15.496L14.808 20.9984H17.496ZM23.4381 25.3024V13.9424H30.9421V15.2224H24.8781V19.0144H29.9821V20.2144H24.8781V25.3024H23.4381ZM32.7663 25.3024V13.9424H40.2703V15.2224H34.2063V19.0144H39.3103V20.2144H34.2063V25.3024H32.7663ZM42.0944 25.3024V13.9424H49.5984V15.2224H43.5344V19.0144H48.6384V20.2144H43.5344V25.3024H42.0944ZM51.4225 25.3024V13.9424H58.9265V15.2224H52.8625V19.0144H57.9665V20.2144H52.8625V25.3024H51.4225ZM60.7506 25.3024V13.9424H68.2546V15.2224H62.1906V19.0144H67.2946V20.2144H62.1906V25.3024H60.7506ZM70.0788 25.3024V13.9424H77.5828V15.2224H71.5188V19.0144H76.6228V20.2144H71.5188V25.3024H70.0788Z" fill="black"/>
<path d="M131.5 20.0098C131.5 25.1687 127.254 29.3634 122 29.3634C116.746 29.3634 112.5 25.1687 112.5 20.0098C112.5 14.8508 116.746 10.6561 122 10.6561C127.254 10.6561 131.5 14.8508 131.5 20.0098Z" fill="white" stroke="black"/>
</svg>
