<svg width="143" height="41" viewBox="0 0 143 41" fill="none" xmlns="http://www.w3.org/2000/svg">
<rect x="0.5" y="8.28537" width="101" height="25.6049" fill="white" stroke="#CFCFCF"/>
<path d="M21.48 18.7358H19.336L18.648 21.5838H20.776V22.6718H18.392L17.608 25.8878H16.44L17.24 22.6718H14.552L13.768 25.8878H12.6L13.4 22.6718H11.592V21.5838H13.656L14.344 18.7358H12.296V17.7118H14.6L15.368 14.5278H16.536L15.752 17.7118H18.44L19.208 14.5278H20.376L19.592 17.7118H21.48V18.7358ZM17.496 21.5838L18.184 18.7358H15.496L14.808 21.5838H17.496ZM28.3501 17.8558H22.5101V16.5598H30.5741L24.8621 27.9198H23.2621L28.3501 17.8558ZM37.4566 24.6078V25.8878H31.7126V24.6078H33.9846V18.3678C33.8886 18.4958 33.7393 18.6345 33.5366 18.7838C33.334 18.9225 33.1046 19.0558 32.8486 19.1838C32.5926 19.3118 32.3366 19.4185 32.0806 19.5038C31.8246 19.5785 31.59 19.6158 31.3766 19.6158V18.2718C31.6113 18.2718 31.8673 18.2078 32.1446 18.0798C32.4326 17.9412 32.71 17.7812 32.9766 17.5998C33.2433 17.4185 33.4673 17.2478 33.6486 17.0878C33.8406 16.9278 33.9526 16.8158 33.9846 16.7518H35.4246V24.6078H37.4566ZM38.5318 25.8878C38.5318 25.4612 38.5638 25.0612 38.6278 24.6878C38.7024 24.3145 38.8304 23.9572 39.0118 23.6158C39.2038 23.2745 39.4704 22.9492 39.8118 22.6398C40.1531 22.3198 40.5958 22.0105 41.1398 21.7118C41.4598 21.5305 41.7798 21.3598 42.0998 21.1998C42.4304 21.0398 42.7344 20.8692 43.0118 20.6878C43.2998 20.5065 43.5291 20.3092 43.6998 20.0958C43.8704 19.8718 43.9558 19.6158 43.9558 19.3278C43.9558 19.0825 43.8811 18.8478 43.7318 18.6238C43.5931 18.3892 43.3798 18.2025 43.0918 18.0638C42.8144 17.9145 42.4678 17.8398 42.0518 17.8398C41.7318 17.8398 41.4384 17.8825 41.1718 17.9678C40.9158 18.0532 40.6811 18.1652 40.4678 18.3038C40.2651 18.4318 40.0838 18.5705 39.9238 18.7198C39.7744 18.8585 39.6464 18.9865 39.5398 19.1038L38.6598 18.1118C38.7451 18.0158 38.8891 17.8878 39.0918 17.7278C39.2944 17.5572 39.5504 17.3865 39.8598 17.2158C40.1691 17.0452 40.5264 16.9012 40.9318 16.7838C41.3478 16.6558 41.8011 16.5918 42.2918 16.5918C42.9531 16.5918 43.5184 16.7092 43.9878 16.9438C44.4678 17.1678 44.8358 17.4771 45.0918 17.8718C45.3478 18.2558 45.4758 18.6878 45.4758 19.1678C45.4758 19.5838 45.3851 19.9465 45.2038 20.2558C45.0331 20.5652 44.8091 20.8372 44.5318 21.0718C44.2651 21.3065 43.9824 21.5092 43.6838 21.6798C43.3958 21.8398 43.1344 21.9785 42.8998 22.0958C42.4198 22.3305 42.0091 22.5438 41.6678 22.7358C41.3264 22.9278 41.0438 23.1198 40.8198 23.3118C40.6064 23.4932 40.4304 23.6852 40.2918 23.8878C40.1638 24.0905 40.0678 24.3305 40.0038 24.6078H45.6518V25.8878H38.5318ZM55.4783 24.6078V25.8878H47.7663V14.5278H55.3343V15.8078H49.2063V19.4878H54.5343V20.6878H49.2063V24.6078H55.4783ZM61.6138 27.9198V25.2158H56.4778V23.9678L62.0618 16.7518H63.0218V23.9358H64.4298V25.2158H63.0218V27.9198H61.6138ZM57.9338 23.9358H61.7578V18.9278L57.9338 23.9358ZM65.5916 20.6718C65.5916 19.9465 65.7676 19.2905 66.1196 18.7038C66.4823 18.1065 66.973 17.6318 67.5916 17.2798C68.2103 16.9278 68.8983 16.7518 69.6556 16.7518C70.477 16.7518 71.1916 16.9492 71.7996 17.3438C72.4183 17.7278 72.8983 18.2878 73.2396 19.0238C73.5916 19.7492 73.7676 20.6238 73.7676 21.6478C73.7676 23.1412 73.5916 24.3838 73.2396 25.3758C72.8876 26.3678 72.3916 27.1092 71.7516 27.5998C71.1116 28.1012 70.365 28.3518 69.5116 28.3518C68.7756 28.3518 68.1036 28.1705 67.4956 27.8078C66.8983 27.4558 66.429 26.9652 66.0876 26.3358L66.9516 25.4878C67.1863 25.9785 67.533 26.3732 67.9916 26.6718C68.461 26.9705 68.973 27.1198 69.5276 27.1198C70.1143 27.1198 70.621 26.9438 71.0476 26.5918C71.485 26.2398 71.821 25.7332 72.0556 25.0718C72.301 24.4105 72.429 23.6105 72.4396 22.6718C72.2903 23.0345 72.0663 23.3545 71.7676 23.6318C71.4796 23.9092 71.1436 24.1225 70.7596 24.2718C70.3756 24.4212 69.9596 24.4958 69.5116 24.4958C68.7863 24.4958 68.125 24.3252 67.5276 23.9838C66.9303 23.6425 66.4556 23.1838 66.1036 22.6078C65.7623 22.0318 65.5916 21.3865 65.5916 20.6718ZM69.6396 17.9678C69.149 17.9678 68.6956 18.0905 68.2796 18.3358C67.8743 18.5812 67.549 18.9065 67.3036 19.3118C67.0583 19.7172 66.9356 20.1705 66.9356 20.6718C66.9356 21.1625 67.0583 21.6105 67.3036 22.0158C67.549 22.4212 67.8743 22.7465 68.2796 22.9918C68.6956 23.2372 69.149 23.3598 69.6396 23.3598C70.141 23.3598 70.5943 23.2372 70.9996 22.9918C71.405 22.7465 71.7303 22.4212 71.9756 22.0158C72.221 21.6105 72.3436 21.1625 72.3436 20.6718C72.3436 20.1812 72.221 19.7332 71.9756 19.3278C71.7303 18.9118 71.3996 18.5812 70.9836 18.3358C70.5783 18.0905 70.1303 17.9678 69.6396 17.9678Z" fill="black"/>
<path d="M131.5 20.5951C131.5 25.7541 127.254 29.9488 122 29.9488C116.746 29.9488 112.5 25.7541 112.5 20.5951C112.5 15.4362 116.746 11.2415 122 11.2415C127.254 11.2415 131.5 15.4362 131.5 20.5951Z" fill="#712E49" stroke="black"/>
</svg>
