<svg width="18" height="13" viewBox="0 0 18 13" fill="none" xmlns="http://www.w3.org/2000/svg">
<path fill-rule="evenodd" clip-rule="evenodd" d="M7.81772 7.20456C8.08878 8.775 8.41808 10.4152 8.6002 10.7526C8.85855 11.2306 9.46314 11.416 9.9502 11.1619C10.4362 10.9078 10.6225 10.3111 10.3642 9.83308C10.1821 9.49566 8.98666 8.3074 7.81772 7.20456ZM7.4069 5.39355C7.98396 5.91842 10.8841 8.57297 11.3002 9.34569C11.8317 10.3309 11.4484 11.5576 10.4457 12.0815C10.1397 12.2408 9.81043 12.3158 9.48643 12.3158C8.74843 12.3158 8.03372 11.9253 7.6642 11.2411C7.24808 10.4683 6.64137 6.61824 6.52384 5.85385C6.49102 5.63516 6.60114 5.41853 6.79914 5.31649C6.99926 5.21235 7.24066 5.24254 7.4069 5.39355ZM9 0C13.9627 0 18 3.97193 18 8.85197C18 9.56326 17.9164 10.2641 17.7501 10.9348L17.6527 11.3326H12.7366V10.2912H16.8078C16.8967 9.82361 16.9412 9.34039 16.9412 8.85197C16.9412 4.54471 13.3782 1.0414 9 1.0414C4.62071 1.0414 1.05883 4.54471 1.05883 8.85197C1.05883 9.3404 1.10331 9.82361 1.19119 10.2912H5.76107V11.3326H0.346247L0.24884 10.9348C0.0836437 10.2641 0 9.56325 0 8.85197C0 3.97193 4.0373 0 9 0ZM14.0864 3.60244L14.835 4.33872L13.7783 5.37805L13.0297 4.64176L14.0864 3.60244ZM3.91279 3.60244L4.96949 4.64175L4.22089 5.37804L3.16421 4.3387L3.91279 3.60242L3.91279 3.60244ZM9.529 1.74571V3.21618H8.47017V1.7457L9.529 1.74571Z" fill="#FFEBEF"/>
</svg>
