<svg width="17" height="14" viewBox="0 0 17 14" fill="none" xmlns="http://www.w3.org/2000/svg">
<path d="M0.500206 6.85843H0.500226V6.85403C0.500226 3.43803 3.97424 0.5 8.50005 0.5C13.0225 0.5 16.4999 3.43814 16.4999 6.85406H16.4999L16.4999 6.86073C16.5065 7.3525 15.9812 7.56814 15.6612 7.30832L15.6601 7.30747L14.9553 6.7384L14.9549 6.73811C14.6328 6.47852 14.2375 6.32954 13.8252 6.31596C13.4127 6.30238 13.0087 6.42508 12.6708 6.66348L12.6623 6.6695L12.654 6.67586C12.2736 6.96876 12.0247 7.30812 11.9074 7.69288C11.7916 8.07296 11.8194 8.44781 11.9043 8.78843C11.9883 9.12503 12.1344 9.45234 12.281 9.74933C12.3508 9.89085 12.4156 10.0161 12.4778 10.1362C12.5586 10.2923 12.635 10.4398 12.7122 10.6034L12.7122 10.6035L12.7146 10.6084C12.8007 10.7858 12.8503 10.981 12.8595 11.1813C12.8687 11.3816 12.8371 11.5812 12.7674 11.7669C12.6978 11.9525 12.5918 12.1192 12.4578 12.2565C12.3239 12.3938 12.165 12.4986 11.9922 12.5656L11.9852 12.5683L11.9783 12.5712C9.62365 13.5648 6.71794 13.3661 4.40537 12.2734C2.09347 11.181 0.479128 9.25453 0.500206 6.85843ZM4.23667 7.48998L4.24666 7.48168L4.25621 7.47288C5.09399 6.70031 4.97617 5.63556 4.44899 4.97994C4.18646 4.65345 3.80646 4.40271 3.36178 4.33322C2.90501 4.26184 2.42643 4.38948 2.00411 4.74017L1.99437 4.74826L1.98505 4.75683C1.1453 5.52921 1.26322 6.59438 1.79099 7.25014C2.05374 7.57661 2.43397 7.82725 2.8787 7.89677C3.33553 7.96817 3.81428 7.84072 4.23667 7.48998ZM4.6357 3.25439L4.63541 3.26659L4.63572 3.27879C4.69459 5.63283 8.05536 5.63495 8.11452 3.27889L8.11482 3.2667L8.11454 3.25451C8.05875 0.898232 4.69185 0.897446 4.6357 3.25439ZM10.8781 9.93586L10.8807 9.91965L10.8822 9.90331C10.9439 9.22407 10.6665 8.6672 10.2352 8.27715C9.8154 7.8975 9.25397 7.67535 8.6987 7.60092C8.14369 7.52653 7.54456 7.59304 7.04275 7.85072C6.52604 8.11606 6.11933 8.5846 6.01236 9.25863L6.00965 9.27569L6.00813 9.2929C5.94804 9.97141 6.2265 10.5275 6.65773 10.9171C7.07765 11.2965 7.63879 11.519 8.19389 11.5938C8.74868 11.6686 9.34763 11.6026 9.84925 11.3449C10.3659 11.0794 10.7718 10.6103 10.8781 9.93586ZM10.6114 5.05932L10.625 5.05969L10.6386 5.05932C11.186 5.04449 11.6275 4.81821 11.926 4.46575C12.2166 4.12268 12.3509 3.68571 12.3509 3.26547C12.3509 2.84524 12.2165 2.40829 11.9258 2.0654C11.6271 1.71309 11.1853 1.48735 10.6379 1.47324L10.625 1.4729L10.6122 1.47323C10.0648 1.48728 9.62304 1.71298 9.32433 2.06523C9.03361 2.40806 8.89915 2.84497 8.89908 3.2652C8.89902 3.68544 9.03335 4.12243 9.32387 4.46554C9.62234 4.81804 10.0639 5.04437 10.6114 5.05932Z" stroke="#FFEBEF"/>
</svg>
