<svg width="225" height="40" viewBox="0 0 225 40" fill="none" xmlns="http://www.w3.org/2000/svg">
<path d="M0.5 7.5H224.5V33.5H0.5V7.5Z" fill="white" stroke="#CFCFCF"/>
<path d="M25.184 26V17.328L21.44 24H20.56L16.8 17.328V26H15.36V14.64H16.88L20.992 22.016L25.12 14.64H26.624V26H25.184ZM32.6278 26.16C31.9984 26.16 31.4278 26.048 30.9158 25.824C30.4038 25.5893 29.9611 25.2747 29.5878 24.88C29.2144 24.4747 28.9264 24.0107 28.7238 23.488C28.5211 22.9653 28.4198 22.416 28.4198 21.84C28.4198 21.2533 28.5211 20.6987 28.7238 20.176C28.9264 19.6533 29.2144 19.1947 29.5878 18.8C29.9611 18.3947 30.4038 18.08 30.9158 17.856C31.4384 17.6213 32.0091 17.504 32.6278 17.504C33.2571 17.504 33.8278 17.6213 34.3398 17.856C34.8518 18.08 35.2944 18.3947 35.6678 18.8C36.0518 19.1947 36.3451 19.6533 36.5478 20.176C36.7504 20.6987 36.8518 21.2533 36.8518 21.84C36.8518 22.416 36.7504 22.9653 36.5478 23.488C36.3451 24.0107 36.0571 24.4747 35.6838 24.88C35.3104 25.2747 34.8624 25.5893 34.3398 25.824C33.8278 26.048 33.2571 26.16 32.6278 26.16ZM29.8598 21.856C29.8598 22.432 29.9824 22.9547 30.2278 23.424C30.4838 23.8933 30.8198 24.2667 31.2358 24.544C31.6518 24.8107 32.1158 24.944 32.6278 24.944C33.1398 24.944 33.6038 24.8053 34.0198 24.528C34.4464 24.2507 34.7824 23.8773 35.0278 23.408C35.2838 22.928 35.4118 22.4 35.4118 21.824C35.4118 21.248 35.2838 20.7253 35.0278 20.256C34.7824 19.7867 34.4464 19.4133 34.0198 19.136C33.6038 18.8587 33.1398 18.72 32.6278 18.72C32.1158 18.72 31.6518 18.864 31.2358 19.152C30.8198 19.4293 30.4838 19.8027 30.2278 20.272C29.9824 20.7413 29.8598 21.2693 29.8598 21.856ZM45.8059 26H44.3979V21.328C44.3979 20.4427 44.2592 19.7973 43.9819 19.392C43.7152 18.976 43.3045 18.768 42.7499 18.768C42.3659 18.768 41.9819 18.864 41.5979 19.056C41.2245 19.248 40.8885 19.5093 40.5899 19.84C40.3019 20.16 40.0939 20.5333 39.9659 20.96V26H38.5579V17.648H39.8379V19.44C40.0619 19.0453 40.3499 18.704 40.7019 18.416C41.0539 18.128 41.4539 17.904 41.9019 17.744C42.3499 17.584 42.8192 17.504 43.3099 17.504C43.7899 17.504 44.1899 17.5947 44.5099 17.776C44.8405 17.9467 45.0965 18.192 45.2779 18.512C45.4699 18.8213 45.6032 19.1893 45.6779 19.616C45.7632 20.0427 45.8059 20.5067 45.8059 21.008V26ZM52.2373 25.584C52.1199 25.6373 51.9599 25.7067 51.7573 25.792C51.5546 25.8773 51.3199 25.952 51.0533 26.016C50.7866 26.08 50.5039 26.112 50.2053 26.112C49.8639 26.112 49.5493 26.0533 49.2613 25.936C48.9733 25.808 48.7439 25.616 48.5733 25.36C48.4026 25.0933 48.3173 24.7627 48.3173 24.368V18.752H47.1813V17.648H48.3173V14.864H49.7253V17.648H51.5973V18.752H49.7253V23.936C49.7466 24.2347 49.8479 24.4587 50.0293 24.608C50.2106 24.7467 50.4239 24.816 50.6693 24.816C50.9466 24.816 51.2026 24.768 51.4373 24.672C51.6719 24.576 51.8266 24.5067 51.9013 24.464L52.2373 25.584ZM56.4062 26.16C55.7129 26.16 55.0623 26.048 54.4543 25.824C53.8463 25.5893 53.3236 25.2427 52.8863 24.784L53.4303 23.792C53.9103 24.24 54.3903 24.56 54.8703 24.752C55.3503 24.944 55.8409 25.04 56.3423 25.04C56.9183 25.04 57.3876 24.9333 57.7503 24.72C58.1129 24.496 58.2943 24.1707 58.2943 23.744C58.2943 23.4347 58.1983 23.2053 58.0063 23.056C57.8249 22.9067 57.5636 22.784 57.2223 22.688C56.8809 22.5813 56.4756 22.464 56.0063 22.336C55.4303 22.1653 54.9449 21.984 54.5503 21.792C54.1556 21.6 53.8569 21.36 53.6543 21.072C53.4516 20.784 53.3503 20.4213 53.3503 19.984C53.3503 19.4507 53.4889 19.0027 53.7663 18.64C54.0436 18.2667 54.4223 17.984 54.9023 17.792C55.3929 17.6 55.9476 17.504 56.5663 17.504C57.1849 17.504 57.7449 17.6 58.2463 17.792C58.7476 17.984 59.1796 18.2667 59.5423 18.64L58.9023 19.616C58.5716 19.2747 58.2089 19.024 57.8143 18.864C57.4196 18.6933 56.9769 18.608 56.4863 18.608C56.1983 18.608 55.9156 18.6453 55.6383 18.72C55.3609 18.784 55.1316 18.9067 54.9503 19.088C54.7689 19.2587 54.6783 19.504 54.6783 19.824C54.6783 20.0907 54.7476 20.304 54.8863 20.464C55.0356 20.6133 55.2489 20.7413 55.5263 20.848C55.8143 20.9547 56.1609 21.072 56.5663 21.2C57.1956 21.3813 57.7396 21.5627 58.1983 21.744C58.6676 21.9253 59.0303 22.16 59.2863 22.448C59.5423 22.736 59.6703 23.136 59.6703 23.648C59.6703 24.4373 59.3716 25.056 58.7743 25.504C58.1769 25.9413 57.3876 26.16 56.4062 26.16ZM65.0508 26.16C64.4214 26.16 63.8454 26.048 63.3228 25.824C62.8108 25.5893 62.3628 25.2747 61.9788 24.88C61.6054 24.4747 61.3121 24.0107 61.0988 23.488C60.8961 22.9653 60.7948 22.4107 60.7948 21.824C60.7948 21.0347 60.9761 20.3147 61.3388 19.664C61.7014 19.0133 62.2028 18.4907 62.8428 18.096C63.4934 17.7013 64.2348 17.504 65.0668 17.504C65.9094 17.504 66.6401 17.7067 67.2588 18.112C67.8881 18.5067 68.3734 19.0293 68.7148 19.68C69.0668 20.32 69.2428 21.0133 69.2428 21.76C69.2428 21.8667 69.2374 21.9733 69.2268 22.08C69.2268 22.176 69.2214 22.2507 69.2108 22.304H62.2828C62.3254 22.848 62.4748 23.3333 62.7308 23.76C62.9974 24.176 63.3388 24.5067 63.7548 24.752C64.1708 24.9867 64.6188 25.104 65.0988 25.104C65.6108 25.104 66.0908 24.976 66.5388 24.72C66.9974 24.464 67.3121 24.128 67.4828 23.712L68.6988 24.048C68.5174 24.4533 68.2454 24.816 67.8828 25.136C67.5308 25.456 67.1094 25.7067 66.6188 25.888C66.1388 26.0693 65.6161 26.16 65.0508 26.16ZM62.2348 21.328H67.9308C67.8881 20.784 67.7334 20.304 67.4668 19.888C67.2001 19.472 66.8588 19.1467 66.4428 18.912C66.0268 18.6773 65.5681 18.56 65.0668 18.56C64.5761 18.56 64.1228 18.6773 63.7068 18.912C63.2908 19.1467 62.9494 19.472 62.6828 19.888C62.4268 20.304 62.2774 20.784 62.2348 21.328ZM75.2239 18.88C74.5199 18.8907 73.8959 19.072 73.3519 19.424C72.8185 19.7653 72.4399 20.24 72.2159 20.848V26H70.8079V17.648H72.1199V19.584C72.4079 19.008 72.7865 18.544 73.2559 18.192C73.7359 17.8293 74.2372 17.6267 74.7599 17.584C74.8665 17.584 74.9572 17.584 75.0319 17.584C75.1065 17.584 75.1705 17.5893 75.2239 17.6V18.88ZM81.0364 18.88C80.3324 18.8907 79.7084 19.072 79.1644 19.424C78.631 19.7653 78.2524 20.24 78.0284 20.848V26H76.6204V17.648H77.9324V19.584C78.2204 19.008 78.599 18.544 79.0684 18.192C79.5484 17.8293 80.0497 17.6267 80.5724 17.584C80.679 17.584 80.7697 17.584 80.8444 17.584C80.919 17.584 80.983 17.5893 81.0364 17.6V18.88ZM81.7769 23.584C81.7769 23.0507 81.9262 22.592 82.2249 22.208C82.5342 21.8133 82.9555 21.5093 83.4889 21.296C84.0222 21.0827 84.6409 20.976 85.3449 20.976C85.7182 20.976 86.1129 21.008 86.5289 21.072C86.9449 21.1253 87.3129 21.2107 87.6329 21.328V20.72C87.6329 20.08 87.4409 19.5787 87.0569 19.216C86.6729 18.8427 86.1289 18.656 85.4249 18.656C84.9662 18.656 84.5235 18.7413 84.0969 18.912C83.6809 19.072 83.2382 19.3067 82.7689 19.616L82.2569 18.624C82.8009 18.2507 83.3449 17.9733 83.8889 17.792C84.4329 17.6 84.9982 17.504 85.5849 17.504C86.6515 17.504 87.4942 17.8027 88.1129 18.4C88.7315 18.9867 89.0409 19.808 89.0409 20.864V24.4C89.0409 24.5707 89.0729 24.6987 89.1369 24.784C89.2115 24.8587 89.3289 24.9013 89.4889 24.912V26C89.3502 26.0213 89.2275 26.0373 89.1209 26.048C89.0249 26.0587 88.9449 26.064 88.8809 26.064C88.5502 26.064 88.2995 25.9733 88.1289 25.792C87.9689 25.6107 87.8782 25.4187 87.8569 25.216L87.8249 24.688C87.4622 25.1573 86.9875 25.52 86.4009 25.776C85.8142 26.032 85.2329 26.16 84.6569 26.16C84.1022 26.16 83.6062 26.048 83.1689 25.824C82.7315 25.5893 82.3902 25.28 82.1449 24.896C81.8995 24.5013 81.7769 24.064 81.7769 23.584ZM87.2169 24.176C87.3449 24.0267 87.4462 23.8773 87.5209 23.728C87.5955 23.568 87.6329 23.4347 87.6329 23.328V22.288C87.3022 22.16 86.9555 22.064 86.5929 22C86.2302 21.9253 85.8729 21.888 85.5209 21.888C84.8062 21.888 84.2249 22.032 83.7769 22.32C83.3395 22.5973 83.1209 22.9813 83.1209 23.472C83.1209 23.7387 83.1902 24 83.3289 24.256C83.4782 24.5013 83.6915 24.704 83.9689 24.864C84.2569 25.024 84.6089 25.104 85.0249 25.104C85.4622 25.104 85.8782 25.0187 86.2729 24.848C86.6675 24.6667 86.9822 24.4427 87.2169 24.176ZM95.5498 25.584C95.4324 25.6373 95.2724 25.7067 95.0698 25.792C94.8671 25.8773 94.6324 25.952 94.3658 26.016C94.0991 26.08 93.8164 26.112 93.5178 26.112C93.1764 26.112 92.8618 26.0533 92.5738 25.936C92.2858 25.808 92.0564 25.616 91.8858 25.36C91.7151 25.0933 91.6298 24.7627 91.6298 24.368V18.752H90.4938V17.648H91.6298V14.864H93.0378V17.648H94.9098V18.752H93.0378V23.936C93.0591 24.2347 93.1604 24.4587 93.3418 24.608C93.5231 24.7467 93.7364 24.816 93.9818 24.816C94.2591 24.816 94.5151 24.768 94.7498 24.672C94.9844 24.576 95.1391 24.5067 95.2138 24.464L95.5498 25.584Z" fill="black"/>
</svg>
