<svg width="152" height="40" viewBox="0 0 152 40" fill="none" xmlns="http://www.w3.org/2000/svg">
<path d="M0.5 7.5H54.5V33.5H0.5V7.5Z" fill="white" stroke="#CFCFCF"/>
<path d="M26.816 24.72V26H21.072V24.72H23.344V18.48C23.248 18.608 23.0987 18.7467 22.896 18.896C22.6933 19.0347 22.464 19.168 22.208 19.296C21.952 19.424 21.696 19.5307 21.44 19.616C21.184 19.6907 20.9493 19.728 20.736 19.728V18.384C20.9707 18.384 21.2267 18.32 21.504 18.192C21.792 18.0533 22.0693 17.8933 22.336 17.712C22.6027 17.5307 22.8267 17.36 23.008 17.2C23.2 17.04 23.312 16.928 23.344 16.864H24.784V24.72H26.816ZM36.1951 22.24C36.1951 21.5253 36.0191 20.88 35.6671 20.304C35.3258 19.728 34.8565 19.2693 34.2591 18.928C33.6725 18.5867 33.0111 18.416 32.2751 18.416C31.8378 18.416 31.4218 18.4907 31.0271 18.64C30.6431 18.7893 30.3071 19.0027 30.0191 19.28C29.7311 19.5467 29.5071 19.8667 29.3471 20.24C29.3578 19.3013 29.4805 18.5013 29.7151 17.84C29.9605 17.1787 30.3018 16.672 30.7391 16.32C31.1765 15.968 31.6831 15.792 32.2591 15.792C32.8245 15.792 33.3365 15.9413 33.7951 16.24C34.2538 16.528 34.6005 16.9227 34.8351 17.424L35.6991 16.576C35.3578 15.9467 34.8831 15.456 34.2751 15.104C33.6778 14.7413 33.0111 14.56 32.2751 14.56C31.4218 14.56 30.6751 14.8107 30.0351 15.312C29.3951 15.8027 28.8991 16.544 28.5471 17.536C28.1951 18.528 28.0191 19.7707 28.0191 21.264C28.0191 22.2773 28.1898 23.152 28.5311 23.888C28.8831 24.624 29.3685 25.1893 29.9871 25.584C30.6058 25.968 31.3205 26.16 32.1311 26.16C32.8991 26.16 33.5871 25.984 34.1951 25.632C34.8138 25.28 35.2991 24.8107 35.6511 24.224C36.0138 23.6267 36.1951 22.9653 36.1951 22.24ZM32.1471 24.944C31.6565 24.944 31.2031 24.8213 30.7871 24.576C30.3818 24.3307 30.0565 24.0053 29.8111 23.6C29.5658 23.184 29.4431 22.7307 29.4431 22.24C29.4431 21.7493 29.5658 21.3013 29.8111 20.896C30.0565 20.4907 30.3818 20.1653 30.7871 19.92C31.2031 19.6747 31.6565 19.552 32.1471 19.552C32.6378 19.552 33.0858 19.6747 33.4911 19.92C33.9071 20.1653 34.2378 20.4907 34.4831 20.896C34.7285 21.3013 34.8511 21.7493 34.8511 22.24C34.8511 22.7307 34.7285 23.184 34.4831 23.6C34.2378 24.0053 33.9071 24.3307 33.4911 24.576C33.0858 24.8213 32.6378 24.944 32.1471 24.944Z" fill="black"/>
</svg>
