<svg width="143" height="40" viewBox="0 0 143 40" fill="none" xmlns="http://www.w3.org/2000/svg">
<path d="M0.5 7.5H101.5V33.5H0.5V7.5Z" fill="white" stroke="#CFCFCF"/>
<path d="M21.48 18.848H19.336L18.648 21.696H20.776V22.784H18.392L17.608 26H16.44L17.24 22.784H14.552L13.768 26H12.6L13.4 22.784H11.592V21.696H13.656L14.344 18.848H12.296V17.824H14.6L15.368 14.64H16.536L15.752 17.824H18.44L19.208 14.64H20.376L19.592 17.824H21.48V18.848ZM17.496 21.696L18.184 18.848H15.496L14.808 21.696H17.496ZM23.4381 26V14.64H30.9421V15.92H24.8781V19.712H29.9821V20.912H24.8781V26H23.4381ZM32.7663 26V14.64H40.2703V15.92H34.2063V19.712H39.3103V20.912H34.2063V26H32.7663ZM42.0944 26V14.64H49.5984V15.92H43.5344V19.712H48.6384V20.912H43.5344V26H42.0944ZM51.4225 26V14.64H58.9265V15.92H52.8625V19.712H57.9665V20.912H52.8625V26H51.4225ZM60.7506 26V14.64H68.2546V15.92H62.1906V19.712H67.2946V20.912H62.1906V26H60.7506ZM70.0788 26V14.64H77.5828V15.92H71.5188V19.712H76.6228V20.912H71.5188V26H70.0788Z" fill="black"/>
<circle cx="122" cy="20" r="9.5" fill="white" stroke="black"/>
</svg>
