<svg width="62" height="62" viewBox="0 0 62 62" fill="none" xmlns="http://www.w3.org/2000/svg">
<path d="M21.3125 52.3125C22.3826 52.3125 23.25 51.4451 23.25 50.375C23.25 49.3049 22.3826 48.4375 21.3125 48.4375C20.2424 48.4375 19.375 49.3049 19.375 50.375C19.375 51.4451 20.2424 52.3125 21.3125 52.3125Z" stroke="black" stroke-width="2" stroke-linecap="round" stroke-linejoin="round"/>
<path d="M48.4375 52.3125C49.5076 52.3125 50.375 51.4451 50.375 50.375C50.375 49.3049 49.5076 48.4375 48.4375 48.4375C47.3674 48.4375 46.5 49.3049 46.5 50.375C46.5 51.4451 47.3674 52.3125 48.4375 52.3125Z" stroke="black" stroke-width="2" stroke-linecap="round" stroke-linejoin="round"/>
<path d="M5.8125 9.6875H13.5625L19.375 42.625H50.375" stroke="black" stroke-width="4" stroke-linecap="round" stroke-linejoin="round"/>
<path d="M19.375 34.875H49.5806C49.8047 34.8752 50.0218 34.7976 50.1952 34.6557C50.3685 34.5137 50.4872 34.3161 50.5312 34.0964L54.0187 16.6589C54.0468 16.5183 54.0434 16.3732 54.0087 16.234C53.9739 16.0949 53.9087 15.9652 53.8178 15.8544C53.7269 15.7435 53.6124 15.6542 53.4828 15.5929C53.3531 15.5316 53.2115 15.4999 53.0681 15.5H15.5" stroke="black" stroke-width="4" stroke-linecap="round" stroke-linejoin="round"/>
</svg>
