<svg width="60" height="60" viewBox="0 0 60 60" fill="none" xmlns="http://www.w3.org/2000/svg">
<g clip-path="url(#clip0_1_226)">
<path fill-rule="evenodd" clip-rule="evenodd" d="M46.6716 0.000747681L0.0294189 46.6432L13.3558 59.9694L19.0085 54.3167L19.0123 54.3205L21.368 51.9648L21.3643 51.9611L23.7201 49.6051L23.7238 49.6089L26.0796 47.2532L26.0759 47.2494L28.4317 44.8935L28.4355 44.8972L30.7912 42.5416L30.7875 42.5378L33.1434 40.1822L33.1471 40.1857L35.5028 37.83L35.499 37.8262L37.855 35.4706L37.8587 35.474L40.2144 33.1184L40.2106 33.1146L42.5666 30.7588L42.5704 30.7626L44.926 28.4068L44.9222 28.403L47.2782 26.0473L47.2816 26.051L49.6376 23.6952L49.6338 23.6915L51.9898 21.3357L51.9933 21.3394L54.3492 18.9836L54.3454 18.9799L59.9981 13.3272L46.6716 0.000747681ZM51.9898 16.6241L55.2865 13.3272L46.6716 4.71234L4.74101 46.6432L13.3558 55.2581L16.6527 51.9611L13.5232 48.8314L15.879 46.4758L19.0085 49.6051L21.3643 47.2495L18.2348 44.1198L20.5906 41.7642L23.7201 44.8935L26.0759 42.5378L20.5906 37.0526L22.9464 34.6966L28.4317 40.1819L30.7875 37.8262L27.658 34.6966L30.0138 32.341L33.1434 35.4706L35.499 33.1147L32.3697 29.9852L34.7254 27.6294L37.855 30.7588L40.2106 28.4031L34.7254 22.9177L37.0813 20.562L42.5666 26.0473L44.9222 23.6915L41.7926 20.562L44.1486 18.2062L47.2782 21.3357L49.6338 18.9799L46.5042 15.8504L48.8602 13.4946L51.9898 16.6241Z" fill="black"/>
</g>
<defs>
<clipPath id="clip0_1_226">
<rect width="60" height="60" fill="white"/>
</clipPath>
</defs>
</svg>
