<svg width="18" height="19" viewBox="0 0 18 19" fill="none" xmlns="http://www.w3.org/2000/svg">
<g clip-path="url(#clip0_1_266)">
<path fill-rule="evenodd" clip-rule="evenodd" d="M16.3064 12.2658L15.3142 13.9805L13.0621 13.2201L12.8324 13.4311C12.177 14.0341 11.4241 14.471 10.5951 14.7281L10.2944 14.8223L9.83061 17.1369H7.83367L7.3699 14.8213L7.06919 14.727C6.24014 14.47 5.48731 14.033 4.8319 13.43L4.60214 13.219L2.35002 13.9794L1.3579 12.2647L3.13672 10.7052L3.06684 10.3925C2.96944 9.95872 2.92073 9.52495 2.92073 9.10402C2.92073 8.6831 2.96943 8.24933 3.06684 7.81556L3.13673 7.50281L1.3579 5.94337L2.35002 4.22863L4.60214 4.988L4.8319 4.77699C5.48731 4.17401 6.24014 3.73702 7.06919 3.47889L7.3699 3.38571L7.83367 1.07118H9.83061L10.2944 3.38679L10.5951 3.47997C11.4241 3.73809 12.177 4.17401 12.8324 4.77808L13.0621 4.98908L15.3142 4.22863L16.3064 5.94337L14.5276 7.50281L14.5974 7.81557C14.6948 8.24933 14.7435 8.6831 14.7435 9.10402C14.7435 9.52495 14.6948 9.95872 14.5974 10.3925L14.5275 10.7052L16.3064 12.2658ZM15.8024 9.10402C15.8024 8.70774 15.7664 8.30288 15.6933 7.89696L17.6638 6.17043L15.7939 2.93802L13.3078 3.77665C12.6799 3.2497 11.9641 2.83413 11.2092 2.55887L10.6967 0.0001297H6.96755L6.45508 2.55779C5.69167 2.83412 4.98861 3.24326 4.35543 3.77557L1.87038 2.93802L0.000488281 6.17043L1.96989 7.89696C1.89789 8.30288 1.86189 8.70774 1.86189 9.10402C1.86189 9.50032 1.89789 9.90517 1.96989 10.31L0.000497656 12.0376L1.87038 15.27L4.3565 14.4303C4.98438 14.9584 5.70015 15.3729 6.45509 15.6492L6.96756 18.2079H10.6967L11.2092 15.6503C11.9716 15.3729 12.6757 14.9648 13.3078 14.4314L15.7939 15.2711L17.6638 12.0387L15.6933 10.3111C15.7664 9.90517 15.8024 9.50032 15.8024 9.10402ZM8.83202 5.35526C6.7885 5.35526 5.12615 7.03681 5.12615 9.10392C5.12615 11.171 6.7885 12.8526 8.83203 12.8526C10.8756 12.8526 12.5379 11.171 12.5379 9.10392C12.5379 7.03681 10.8756 5.35526 8.83202 5.35526ZM8.83203 11.7815C7.37297 11.7815 6.18497 10.5798 6.18497 9.10392C6.18497 7.62802 7.37297 6.42631 8.83203 6.42631C10.2911 6.42631 11.4791 7.62802 11.4791 9.10392C11.4791 10.5798 10.2911 11.7815 8.83204 11.7815" fill="#FFEBEF"/>
</g>
<defs>
<clipPath id="clip0_1_266">
<rect width="18" height="18.2078" fill="white"/>
</clipPath>
</defs>
</svg>
