<svg width="185" height="40" viewBox="0 0 185 40" fill="none" xmlns="http://www.w3.org/2000/svg">
<path d="M0.5 7.5H184.5V33.5H0.5V7.5Z" fill="white" stroke="#CFCFCF"/>
<path d="M28.9931 27.7917C31.5911 27.7917 33.6974 25.9262 33.6974 23.625C33.6974 21.3239 31.5911 19.4583 28.9931 19.4583H28.9666C28.9841 19.2868 28.9931 19.113 28.9931 18.9375C28.9931 15.7734 26.097 13.2083 22.5246 13.2083C18.9522 13.2083 16.0562 15.7734 16.0562 18.9375C16.0562 18.9424 16.0562 18.9474 16.0562 18.9523C13.7555 19.3659 12.0239 21.1675 12.0239 23.3273C12.0239 25.7928 14.2806 27.7916 17.0642 27.7916" stroke="black" stroke-width="2" stroke-linecap="round" stroke-linejoin="round"/>
<path d="M23.1129 27.7917V22.5833M23.1129 22.5833L25.465 24.6667M23.1129 22.5833L20.7607 24.6667" stroke="black" stroke-width="2" stroke-linecap="round" stroke-linejoin="round"/>
<path d="M48.048 26.08C47.1413 26.08 46.3787 25.9253 45.76 25.616C45.1413 25.296 44.6453 24.8693 44.272 24.336C43.8987 23.792 43.6267 23.1787 43.456 22.496C43.2853 21.8133 43.2 21.1093 43.2 20.384V14.64H44.64V20.384C44.64 20.9387 44.6933 21.4827 44.8 22.016C44.9173 22.5387 45.104 23.008 45.36 23.424C45.616 23.84 45.9627 24.1707 46.4 24.416C46.8373 24.6613 47.3813 24.784 48.032 24.784C48.6933 24.784 49.2427 24.6613 49.68 24.416C50.1173 24.16 50.464 23.824 50.72 23.408C50.976 22.9813 51.1573 22.5067 51.264 21.984C51.3813 21.4613 51.44 20.928 51.44 20.384V14.64H52.88V20.384C52.88 21.152 52.7893 21.8827 52.608 22.576C52.4373 23.2587 52.16 23.8613 51.776 24.384C51.392 24.9067 50.8907 25.3227 50.272 25.632C49.664 25.9307 48.9227 26.08 48.048 26.08ZM59.5851 26.16C58.9025 26.16 58.2945 25.9893 57.7611 25.648C57.2278 25.3067 56.8065 24.8747 56.4971 24.352V29.408H55.0891V17.648H56.3371V19.216C56.6678 18.704 57.0998 18.2933 57.6331 17.984C58.1665 17.664 58.7478 17.504 59.3771 17.504C59.9531 17.504 60.4811 17.6213 60.9611 17.856C61.4411 18.0907 61.8571 18.4107 62.2091 18.816C62.5611 19.2213 62.8331 19.6853 63.0251 20.208C63.2278 20.72 63.3291 21.2587 63.3291 21.824C63.3291 22.6133 63.1691 23.3387 62.8491 24C62.5398 24.6613 62.1025 25.1893 61.5371 25.584C60.9718 25.968 60.3211 26.16 59.5851 26.16ZM59.1531 24.944C59.5691 24.944 59.9425 24.8587 60.2731 24.688C60.6145 24.5067 60.9025 24.272 61.1371 23.984C61.3825 23.6853 61.5691 23.3493 61.6971 22.976C61.8251 22.6027 61.8891 22.2187 61.8891 21.824C61.8891 21.408 61.8145 21.0133 61.6651 20.64C61.5265 20.2667 61.3238 19.936 61.0571 19.648C60.8011 19.36 60.4971 19.136 60.1451 18.976C59.8038 18.8053 59.4305 18.72 59.0251 18.72C58.7691 18.72 58.5025 18.768 58.2251 18.864C57.9585 18.96 57.7025 19.0987 57.4571 19.28C57.2118 19.4507 57.0038 19.648 56.8331 19.872C56.6625 20.096 56.5505 20.336 56.4971 20.592V22.976C56.6571 23.3387 56.8705 23.6693 57.1371 23.968C57.4038 24.2667 57.7131 24.5067 58.0651 24.688C58.4171 24.8587 58.7798 24.944 59.1531 24.944ZM65.0899 14.32H66.4979V23.84C66.4979 24.2987 66.5619 24.5813 66.6899 24.688C66.8179 24.7947 66.9725 24.848 67.1539 24.848C67.3779 24.848 67.5912 24.8267 67.7939 24.784C67.9965 24.7307 68.1672 24.6773 68.3059 24.624L68.5299 25.776C68.2952 25.872 68.0179 25.952 67.6979 26.016C67.3779 26.08 67.0952 26.112 66.8499 26.112C66.3059 26.112 65.8739 25.9573 65.5539 25.648C65.2445 25.3387 65.0899 24.9067 65.0899 24.352V14.32ZM73.284 26.16C72.6547 26.16 72.084 26.048 71.572 25.824C71.06 25.5893 70.6173 25.2747 70.244 24.88C69.8707 24.4747 69.5827 24.0107 69.38 23.488C69.1773 22.9653 69.076 22.416 69.076 21.84C69.076 21.2533 69.1773 20.6987 69.38 20.176C69.5827 19.6533 69.8707 19.1947 70.244 18.8C70.6173 18.3947 71.06 18.08 71.572 17.856C72.0947 17.6213 72.6653 17.504 73.284 17.504C73.9133 17.504 74.484 17.6213 74.996 17.856C75.508 18.08 75.9507 18.3947 76.324 18.8C76.708 19.1947 77.0013 19.6533 77.204 20.176C77.4067 20.6987 77.508 21.2533 77.508 21.84C77.508 22.416 77.4067 22.9653 77.204 23.488C77.0013 24.0107 76.7133 24.4747 76.34 24.88C75.9667 25.2747 75.5187 25.5893 74.996 25.824C74.484 26.048 73.9133 26.16 73.284 26.16ZM70.516 21.856C70.516 22.432 70.6387 22.9547 70.884 23.424C71.14 23.8933 71.476 24.2667 71.892 24.544C72.308 24.8107 72.772 24.944 73.284 24.944C73.796 24.944 74.26 24.8053 74.676 24.528C75.1027 24.2507 75.4387 23.8773 75.684 23.408C75.94 22.928 76.068 22.4 76.068 21.824C76.068 21.248 75.94 20.7253 75.684 20.256C75.4387 19.7867 75.1027 19.4133 74.676 19.136C74.26 18.8587 73.796 18.72 73.284 18.72C72.772 18.72 72.308 18.864 71.892 19.152C71.476 19.4293 71.14 19.8027 70.884 20.272C70.6387 20.7413 70.516 21.2693 70.516 21.856ZM78.5581 23.584C78.5581 23.0507 78.7075 22.592 79.0061 22.208C79.3155 21.8133 79.7368 21.5093 80.2701 21.296C80.8035 21.0827 81.4221 20.976 82.1261 20.976C82.4995 20.976 82.8941 21.008 83.3101 21.072C83.7261 21.1253 84.0941 21.2107 84.4141 21.328V20.72C84.4141 20.08 84.2221 19.5787 83.8381 19.216C83.4541 18.8427 82.9101 18.656 82.2061 18.656C81.7475 18.656 81.3048 18.7413 80.8781 18.912C80.4621 19.072 80.0195 19.3067 79.5501 19.616L79.0381 18.624C79.5821 18.2507 80.1261 17.9733 80.6701 17.792C81.2141 17.6 81.7795 17.504 82.3661 17.504C83.4328 17.504 84.2755 17.8027 84.8941 18.4C85.5128 18.9867 85.8221 19.808 85.8221 20.864V24.4C85.8221 24.5707 85.8541 24.6987 85.9181 24.784C85.9928 24.8587 86.1101 24.9013 86.2701 24.912V26C86.1315 26.0213 86.0088 26.0373 85.9021 26.048C85.8061 26.0587 85.7261 26.064 85.6621 26.064C85.3315 26.064 85.0808 25.9733 84.9101 25.792C84.7501 25.6107 84.6595 25.4187 84.6381 25.216L84.6061 24.688C84.2435 25.1573 83.7688 25.52 83.1821 25.776C82.5955 26.032 82.0141 26.16 81.4381 26.16C80.8835 26.16 80.3875 26.048 79.9501 25.824C79.5128 25.5893 79.1715 25.28 78.9261 24.896C78.6808 24.5013 78.5581 24.064 78.5581 23.584ZM83.9981 24.176C84.1261 24.0267 84.2275 23.8773 84.3021 23.728C84.3768 23.568 84.4141 23.4347 84.4141 23.328V22.288C84.0835 22.16 83.7368 22.064 83.3741 22C83.0115 21.9253 82.6541 21.888 82.3021 21.888C81.5875 21.888 81.0061 22.032 80.5581 22.32C80.1208 22.5973 79.9021 22.9813 79.9021 23.472C79.9021 23.7387 79.9715 24 80.1101 24.256C80.2595 24.5013 80.4728 24.704 80.7501 24.864C81.0381 25.024 81.3901 25.104 81.8061 25.104C82.2435 25.104 82.6595 25.0187 83.0541 24.848C83.4488 24.6667 83.7635 24.4427 83.9981 24.176ZM87.5295 21.84C87.5295 21.0507 87.6895 20.3307 88.0095 19.68C88.3402 19.0187 88.7882 18.4907 89.3535 18.096C89.9295 17.7013 90.5855 17.504 91.3215 17.504C91.9935 17.504 92.5962 17.68 93.1295 18.032C93.6628 18.384 94.0788 18.8107 94.3775 19.312V14.32H95.7855V24.4C95.7855 24.5707 95.8175 24.6987 95.8815 24.784C95.9562 24.8587 96.0735 24.9013 96.2335 24.912V26C95.9668 26.0427 95.7588 26.064 95.6095 26.064C95.3322 26.064 95.0868 25.968 94.8735 25.776C94.6708 25.584 94.5695 25.3707 94.5695 25.136V24.432C94.2388 24.9653 93.7962 25.3867 93.2415 25.696C92.6868 26.0053 92.1108 26.16 91.5135 26.16C90.9375 26.16 90.4042 26.048 89.9135 25.824C89.4335 25.5893 89.0122 25.2693 88.6495 24.864C88.2975 24.4587 88.0202 24 87.8175 23.488C87.6255 22.9653 87.5295 22.416 87.5295 21.84ZM94.3775 23.072V20.672C94.2495 20.3093 94.0415 19.984 93.7535 19.696C93.4655 19.3973 93.1402 19.1627 92.7775 18.992C92.4255 18.8107 92.0735 18.72 91.7215 18.72C91.3055 18.72 90.9268 18.8107 90.5855 18.992C90.2548 19.1627 89.9668 19.3973 89.7215 19.696C89.4868 19.984 89.3055 20.3147 89.1775 20.688C89.0495 21.0613 88.9855 21.4507 88.9855 21.856C88.9855 22.272 89.0548 22.6667 89.1935 23.04C89.3428 23.4133 89.5455 23.744 89.8015 24.032C90.0682 24.32 90.3722 24.544 90.7135 24.704C91.0655 24.864 91.4442 24.944 91.8495 24.944C92.1055 24.944 92.3668 24.896 92.6335 24.8C92.9108 24.704 93.1722 24.5707 93.4175 24.4C93.6628 24.2293 93.8708 24.032 94.0415 23.808C94.2122 23.5733 94.3242 23.328 94.3775 23.072ZM101.527 23.584C101.527 23.0507 101.676 22.592 101.975 22.208C102.284 21.8133 102.706 21.5093 103.239 21.296C103.772 21.0827 104.391 20.976 105.095 20.976C105.468 20.976 105.863 21.008 106.279 21.072C106.695 21.1253 107.063 21.2107 107.383 21.328V20.72C107.383 20.08 107.191 19.5787 106.807 19.216C106.423 18.8427 105.879 18.656 105.175 18.656C104.716 18.656 104.274 18.7413 103.847 18.912C103.431 19.072 102.988 19.3067 102.519 19.616L102.007 18.624C102.551 18.2507 103.095 17.9733 103.639 17.792C104.183 17.6 104.748 17.504 105.335 17.504C106.402 17.504 107.244 17.8027 107.863 18.4C108.482 18.9867 108.791 19.808 108.791 20.864V24.4C108.791 24.5707 108.823 24.6987 108.887 24.784C108.962 24.8587 109.079 24.9013 109.239 24.912V26C109.1 26.0213 108.978 26.0373 108.871 26.048C108.775 26.0587 108.695 26.064 108.631 26.064C108.3 26.064 108.05 25.9733 107.879 25.792C107.719 25.6107 107.628 25.4187 107.607 25.216L107.575 24.688C107.212 25.1573 106.738 25.52 106.151 25.776C105.564 26.032 104.983 26.16 104.407 26.16C103.852 26.16 103.356 26.048 102.919 25.824C102.482 25.5893 102.14 25.28 101.895 24.896C101.65 24.5013 101.527 24.064 101.527 23.584ZM106.967 24.176C107.095 24.0267 107.196 23.8773 107.271 23.728C107.346 23.568 107.383 23.4347 107.383 23.328V22.288C107.052 22.16 106.706 22.064 106.343 22C105.98 21.9253 105.623 21.888 105.271 21.888C104.556 21.888 103.975 22.032 103.527 22.32C103.09 22.5973 102.871 22.9813 102.871 23.472C102.871 23.7387 102.94 24 103.079 24.256C103.228 24.5013 103.442 24.704 103.719 24.864C104.007 25.024 104.359 25.104 104.775 25.104C105.212 25.104 105.628 25.0187 106.023 24.848C106.418 24.6667 106.732 24.4427 106.967 24.176ZM118.29 26H116.882V21.328C116.882 20.4427 116.744 19.7973 116.466 19.392C116.2 18.976 115.789 18.768 115.234 18.768C114.85 18.768 114.466 18.864 114.082 19.056C113.709 19.248 113.373 19.5093 113.074 19.84C112.786 20.16 112.578 20.5333 112.45 20.96V26H111.042V17.648H112.322V19.44C112.546 19.0453 112.834 18.704 113.186 18.416C113.538 18.128 113.938 17.904 114.386 17.744C114.834 17.584 115.304 17.504 115.794 17.504C116.274 17.504 116.674 17.5947 116.994 17.776C117.325 17.9467 117.581 18.192 117.762 18.512C117.954 18.8213 118.088 19.1893 118.162 19.616C118.248 20.0427 118.29 20.5067 118.29 21.008V26ZM124.527 26V17.648H125.935V26H124.527ZM124.527 16.08V14.32H125.935V16.08H124.527ZM140.806 26H139.398V21.328C139.398 20.4533 139.254 19.808 138.966 19.392C138.689 18.976 138.273 18.768 137.718 18.768C137.153 18.768 136.641 18.976 136.182 19.392C135.723 19.7973 135.398 20.3253 135.206 20.976V26H133.798V21.328C133.798 20.4427 133.659 19.7973 133.382 19.392C133.105 18.976 132.689 18.768 132.134 18.768C131.579 18.768 131.067 18.9707 130.598 19.376C130.139 19.7707 129.814 20.2987 129.622 20.96V26H128.214V17.648H129.494V19.44C129.835 18.8213 130.278 18.3467 130.822 18.016C131.366 17.6747 131.979 17.504 132.662 17.504C133.355 17.504 133.91 17.696 134.326 18.08C134.742 18.4533 134.998 18.9387 135.094 19.536C135.467 18.8747 135.921 18.3733 136.454 18.032C136.987 17.68 137.595 17.504 138.278 17.504C138.758 17.504 139.158 17.5947 139.478 17.776C139.809 17.9467 140.07 18.192 140.262 18.512C140.454 18.8213 140.593 19.1893 140.678 19.616C140.763 20.0427 140.806 20.5067 140.806 21.008V26ZM142.339 23.584C142.339 23.0507 142.489 22.592 142.787 22.208C143.097 21.8133 143.518 21.5093 144.051 21.296C144.585 21.0827 145.203 20.976 145.907 20.976C146.281 20.976 146.675 21.008 147.091 21.072C147.507 21.1253 147.875 21.2107 148.195 21.328V20.72C148.195 20.08 148.003 19.5787 147.619 19.216C147.235 18.8427 146.691 18.656 145.987 18.656C145.529 18.656 145.086 18.7413 144.659 18.912C144.243 19.072 143.801 19.3067 143.331 19.616L142.819 18.624C143.363 18.2507 143.907 17.9733 144.451 17.792C144.995 17.6 145.561 17.504 146.147 17.504C147.214 17.504 148.057 17.8027 148.675 18.4C149.294 18.9867 149.603 19.808 149.603 20.864V24.4C149.603 24.5707 149.635 24.6987 149.699 24.784C149.774 24.8587 149.891 24.9013 150.051 24.912V26C149.913 26.0213 149.79 26.0373 149.683 26.048C149.587 26.0587 149.507 26.064 149.443 26.064C149.113 26.064 148.862 25.9733 148.691 25.792C148.531 25.6107 148.441 25.4187 148.419 25.216L148.387 24.688C148.025 25.1573 147.55 25.52 146.963 25.776C146.377 26.032 145.795 26.16 145.219 26.16C144.665 26.16 144.169 26.048 143.731 25.824C143.294 25.5893 142.953 25.28 142.707 24.896C142.462 24.5013 142.339 24.064 142.339 23.584ZM147.779 24.176C147.907 24.0267 148.009 23.8773 148.083 23.728C148.158 23.568 148.195 23.4347 148.195 23.328V22.288C147.865 22.16 147.518 22.064 147.155 22C146.793 21.9253 146.435 21.888 146.083 21.888C145.369 21.888 144.787 22.032 144.339 22.32C143.902 22.5973 143.683 22.9813 143.683 23.472C143.683 23.7387 143.753 24 143.891 24.256C144.041 24.5013 144.254 24.704 144.531 24.864C144.819 25.024 145.171 25.104 145.587 25.104C146.025 25.104 146.441 25.0187 146.835 24.848C147.23 24.6667 147.545 24.4427 147.779 24.176ZM155.183 26.096C154.617 26.096 154.095 25.984 153.615 25.76C153.145 25.5253 152.74 25.2107 152.399 24.816C152.057 24.4107 151.791 23.952 151.599 23.44C151.417 22.928 151.327 22.3947 151.327 21.84C151.327 21.2533 151.417 20.6987 151.599 20.176C151.791 19.6533 152.057 19.1947 152.399 18.8C152.751 18.3947 153.161 18.08 153.631 17.856C154.1 17.6213 154.623 17.504 155.199 17.504C155.892 17.504 156.495 17.6747 157.007 18.016C157.529 18.3573 157.967 18.7893 158.319 19.312V17.648H159.567V25.904C159.567 26.6933 159.375 27.36 158.991 27.904C158.617 28.448 158.105 28.8587 157.455 29.136C156.815 29.424 156.1 29.568 155.311 29.568C154.372 29.568 153.604 29.4027 153.007 29.072C152.409 28.7413 151.913 28.2933 151.519 27.728L152.335 27.008C152.665 27.4987 153.092 27.8667 153.615 28.112C154.148 28.3573 154.713 28.48 155.311 28.48C155.823 28.48 156.292 28.384 156.719 28.192C157.156 28.0107 157.503 27.728 157.759 27.344C158.025 26.96 158.159 26.48 158.159 25.904V24.432C157.849 24.944 157.423 25.3493 156.879 25.648C156.345 25.9467 155.78 26.096 155.183 26.096ZM155.615 24.944C155.913 24.944 156.201 24.8907 156.479 24.784C156.756 24.6773 157.012 24.5387 157.247 24.368C157.481 24.1867 157.679 23.984 157.839 23.76C157.999 23.536 158.105 23.3067 158.159 23.072V20.672C158.009 20.288 157.796 19.952 157.519 19.664C157.241 19.3653 156.927 19.136 156.575 18.976C156.223 18.8053 155.86 18.72 155.487 18.72C155.06 18.72 154.676 18.8107 154.335 18.992C154.004 19.1733 153.721 19.4187 153.487 19.728C153.252 20.0267 153.071 20.3627 152.943 20.736C152.815 21.1093 152.751 21.488 152.751 21.872C152.751 22.288 152.825 22.6827 152.975 23.056C153.124 23.4187 153.327 23.744 153.583 24.032C153.839 24.32 154.143 24.544 154.495 24.704C154.847 24.864 155.22 24.944 155.615 24.944ZM165.535 26.16C164.906 26.16 164.33 26.048 163.807 25.824C163.295 25.5893 162.847 25.2747 162.463 24.88C162.09 24.4747 161.796 24.0107 161.583 23.488C161.38 22.9653 161.279 22.4107 161.279 21.824C161.279 21.0347 161.46 20.3147 161.823 19.664C162.186 19.0133 162.687 18.4907 163.327 18.096C163.978 17.7013 164.719 17.504 165.551 17.504C166.394 17.504 167.124 17.7067 167.743 18.112C168.372 18.5067 168.858 19.0293 169.199 19.68C169.551 20.32 169.727 21.0133 169.727 21.76C169.727 21.8667 169.722 21.9733 169.711 22.08C169.711 22.176 169.706 22.2507 169.695 22.304H162.767C162.81 22.848 162.959 23.3333 163.215 23.76C163.482 24.176 163.823 24.5067 164.239 24.752C164.655 24.9867 165.103 25.104 165.583 25.104C166.095 25.104 166.575 24.976 167.023 24.72C167.482 24.464 167.796 24.128 167.967 23.712L169.183 24.048C169.002 24.4533 168.73 24.816 168.367 25.136C168.015 25.456 167.594 25.7067 167.103 25.888C166.623 26.0693 166.1 26.16 165.535 26.16ZM162.719 21.328H168.415C168.372 20.784 168.218 20.304 167.951 19.888C167.684 19.472 167.343 19.1467 166.927 18.912C166.511 18.6773 166.052 18.56 165.551 18.56C165.06 18.56 164.607 18.6773 164.191 18.912C163.775 19.1467 163.434 19.472 163.167 19.888C162.911 20.304 162.762 20.784 162.719 21.328Z" fill="black"/>
</svg>
