<svg width="143" height="40" viewBox="0 0 143 40" fill="none" xmlns="http://www.w3.org/2000/svg">
<rect x="0.5" y="7.5" width="101" height="26" fill="white" stroke="#CFCFCF"/>
<path d="M21.48 18.848H19.336L18.648 21.696H20.776V22.784H18.392L17.608 26H16.44L17.24 22.784H14.552L13.768 26H12.6L13.4 22.784H11.592V21.696H13.656L14.344 18.848H12.296V17.824H14.6L15.368 14.64H16.536L15.752 17.824H18.44L19.208 14.64H20.376L19.592 17.824H21.48V18.848ZM17.496 21.696L18.184 18.848H15.496L14.808 21.696H17.496ZM23.4381 26V14.64H30.9421V15.92H24.8781V19.712H29.9821V20.912H24.8781V26H23.4381ZM32.7663 26V14.64H40.2703V15.92H34.2063V19.712H39.3103V20.912H34.2063V26H32.7663ZM42.0944 26V14.64H46.0304C47.2464 14.64 48.2597 14.896 49.0704 15.408C49.8917 15.9093 50.505 16.592 50.9104 17.456C51.3157 18.3093 51.5184 19.2587 51.5184 20.304C51.5184 21.456 51.2944 22.4587 50.8464 23.312C50.3984 24.1653 49.7637 24.8267 48.9424 25.296C48.121 25.7653 47.1504 26 46.0304 26H42.0944ZM50.0624 20.304C50.0624 19.4507 49.9024 18.6933 49.5824 18.032C49.273 17.3707 48.8197 16.8533 48.2224 16.48C47.625 16.1067 46.8944 15.92 46.0304 15.92H43.5344V24.72H46.0304C46.905 24.72 47.641 24.528 48.2384 24.144C48.8357 23.7493 49.289 23.2213 49.5984 22.56C49.9077 21.888 50.0624 21.136 50.0624 20.304ZM52.7635 20.784C52.7635 20.0587 52.9395 19.4027 53.2915 18.816C53.6542 18.2187 54.1448 17.744 54.7635 17.392C55.3822 17.04 56.0702 16.864 56.8275 16.864C57.6488 16.864 58.3635 17.0613 58.9715 17.456C59.5902 17.84 60.0702 18.4 60.4115 19.136C60.7635 19.8613 60.9395 20.736 60.9395 21.76C60.9395 23.2533 60.7635 24.496 60.4115 25.488C60.0595 26.48 59.5635 27.2213 58.9235 27.712C58.2835 28.2133 57.5368 28.464 56.6835 28.464C55.9475 28.464 55.2755 28.2827 54.6675 27.92C54.0702 27.568 53.6008 27.0773 53.2595 26.448L54.1235 25.6C54.3582 26.0907 54.7048 26.4853 55.1635 26.784C55.6328 27.0827 56.1448 27.232 56.6995 27.232C57.2862 27.232 57.7928 27.056 58.2195 26.704C58.6568 26.352 58.9928 25.8453 59.2275 25.184C59.4728 24.5227 59.6008 23.7227 59.6115 22.784C59.4622 23.1467 59.2382 23.4667 58.9395 23.744C58.6515 24.0213 58.3155 24.2347 57.9315 24.384C57.5475 24.5333 57.1315 24.608 56.6835 24.608C55.9582 24.608 55.2968 24.4373 54.6995 24.096C54.1022 23.7547 53.6275 23.296 53.2755 22.72C52.9342 22.144 52.7635 21.4987 52.7635 20.784ZM56.8115 18.08C56.3208 18.08 55.8675 18.2027 55.4515 18.448C55.0462 18.6933 54.7208 19.0187 54.4755 19.424C54.2302 19.8293 54.1075 20.2827 54.1075 20.784C54.1075 21.2747 54.2302 21.7227 54.4755 22.128C54.7208 22.5333 55.0462 22.8587 55.4515 23.104C55.8675 23.3493 56.3208 23.472 56.8115 23.472C57.3128 23.472 57.7662 23.3493 58.1715 23.104C58.5768 22.8587 58.9022 22.5333 59.1475 22.128C59.3928 21.7227 59.5155 21.2747 59.5155 20.784C59.5155 20.2933 59.3928 19.8453 59.1475 19.44C58.9022 19.024 58.5715 18.6933 58.1555 18.448C57.7502 18.2027 57.3022 18.08 56.8115 18.08ZM70.6814 24.72V26H62.9694V14.64H70.5374V15.92H64.4094V19.6H69.7374V20.8H64.4094V24.72H70.6814ZM77.0249 22.224C77.4835 22.2987 77.8782 22.4693 78.2089 22.736C78.5395 22.992 78.7955 23.3227 78.9769 23.728C79.1582 24.1227 79.2489 24.5707 79.2489 25.072C79.2489 25.7227 79.0889 26.2933 78.7689 26.784C78.4595 27.2853 78.0169 27.6693 77.4409 27.936C76.8649 28.2133 76.1929 28.352 75.4249 28.352C74.6142 28.352 73.8995 28.1973 73.2809 27.888C72.6729 27.5893 72.1982 27.1627 71.8569 26.608L72.8009 25.664C73.0462 26.0907 73.3769 26.432 73.7929 26.688C74.2195 26.944 74.7635 27.072 75.4249 27.072C76.1609 27.072 76.7369 26.9013 77.1529 26.56C77.5795 26.2293 77.7929 25.7333 77.7929 25.072C77.7929 24.4 77.5635 23.8667 77.1049 23.472C76.6569 23.0667 76.0009 22.864 75.1369 22.864H74.7209V21.68H75.1689C75.9369 21.68 76.5235 21.4933 76.9289 21.12C77.3449 20.7467 77.5529 20.2827 77.5529 19.728C77.5529 19.344 77.4622 19.0293 77.2809 18.784C77.0995 18.5387 76.8542 18.3573 76.5449 18.24C76.2355 18.112 75.8782 18.048 75.4729 18.048C74.8862 18.048 74.3689 18.176 73.9209 18.432C73.4835 18.6773 73.1422 19.024 72.8969 19.472L72.0329 18.576C72.2249 18.2133 72.4969 17.8987 72.8489 17.632C73.2115 17.3653 73.6275 17.1573 74.0969 17.008C74.5769 16.8587 75.0835 16.784 75.6169 16.784C76.2889 16.784 76.8809 16.9013 77.3929 17.136C77.9155 17.3707 78.3209 17.7013 78.6089 18.128C78.8969 18.5547 79.0409 19.056 79.0409 19.632C79.0409 20.048 78.9609 20.4427 78.8009 20.816C78.6409 21.1787 78.4062 21.488 78.0969 21.744C77.7982 21.9893 77.4409 22.1493 77.0249 22.224Z" fill="black"/>
<circle cx="122" cy="20" r="9.5" fill="#FFD9E3" stroke="black"/>
</svg>
