<svg width="143" height="40" viewBox="0 0 143 40" fill="none" xmlns="http://www.w3.org/2000/svg">
<rect x="0.5" y="7.5" width="101" height="26" fill="white" stroke="#CFCFCF"/>
<path d="M21.48 18.848H19.336L18.648 21.696H20.776V22.784H18.392L17.608 26H16.44L17.24 22.784H14.552L13.768 26H12.6L13.4 22.784H11.592V21.696H13.656L14.344 18.848H12.296V17.824H14.6L15.368 14.64H16.536L15.752 17.824H18.44L19.208 14.64H20.376L19.592 17.824H21.48V18.848ZM17.496 21.696L18.184 18.848H15.496L14.808 21.696H17.496ZM28.3501 17.968H22.5101V16.672H30.5741L24.8621 28.032H23.2621L28.3501 17.968ZM37.4566 24.72V26H31.7126V24.72H33.9846V18.48C33.8886 18.608 33.7393 18.7467 33.5366 18.896C33.334 19.0347 33.1046 19.168 32.8486 19.296C32.5926 19.424 32.3366 19.5307 32.0806 19.616C31.8246 19.6907 31.59 19.728 31.3766 19.728V18.384C31.6113 18.384 31.8673 18.32 32.1446 18.192C32.4326 18.0533 32.71 17.8933 32.9766 17.712C33.2433 17.5307 33.4673 17.36 33.6486 17.2C33.8406 17.04 33.9526 16.928 33.9846 16.864H35.4246V24.72H37.4566ZM38.5318 26C38.5318 25.5733 38.5638 25.1733 38.6278 24.8C38.7024 24.4267 38.8304 24.0693 39.0118 23.728C39.2038 23.3867 39.4704 23.0613 39.8118 22.752C40.1531 22.432 40.5958 22.1227 41.1398 21.824C41.4598 21.6427 41.7798 21.472 42.0998 21.312C42.4304 21.152 42.7344 20.9813 43.0118 20.8C43.2998 20.6187 43.5291 20.4213 43.6998 20.208C43.8704 19.984 43.9558 19.728 43.9558 19.44C43.9558 19.1947 43.8811 18.96 43.7318 18.736C43.5931 18.5013 43.3798 18.3147 43.0918 18.176C42.8144 18.0267 42.4678 17.952 42.0518 17.952C41.7318 17.952 41.4384 17.9947 41.1718 18.08C40.9158 18.1653 40.6811 18.2773 40.4678 18.416C40.2651 18.544 40.0838 18.6827 39.9238 18.832C39.7744 18.9707 39.6464 19.0987 39.5398 19.216L38.6598 18.224C38.7451 18.128 38.8891 18 39.0918 17.84C39.2944 17.6693 39.5504 17.4987 39.8598 17.328C40.1691 17.1573 40.5264 17.0133 40.9318 16.896C41.3478 16.768 41.8011 16.704 42.2918 16.704C42.9531 16.704 43.5184 16.8213 43.9878 17.056C44.4678 17.28 44.8358 17.5893 45.0918 17.984C45.3478 18.368 45.4758 18.8 45.4758 19.28C45.4758 19.696 45.3851 20.0587 45.2038 20.368C45.0331 20.6773 44.8091 20.9493 44.5318 21.184C44.2651 21.4187 43.9824 21.6213 43.6838 21.792C43.3958 21.952 43.1344 22.0907 42.8998 22.208C42.4198 22.4427 42.0091 22.656 41.6678 22.848C41.3264 23.04 41.0438 23.232 40.8198 23.424C40.6064 23.6053 40.4304 23.7973 40.2918 24C40.1638 24.2027 40.0678 24.4427 40.0038 24.72H45.6518V26H38.5318ZM55.4783 24.72V26H47.7663V14.64H55.3343V15.92H49.2063V19.6H54.5343V20.8H49.2063V24.72H55.4783ZM61.6138 28.032V25.328H56.4778V24.08L62.0618 16.864H63.0218V24.048H64.4298V25.328H63.0218V28.032H61.6138ZM57.9338 24.048H61.7578V19.04L57.9338 24.048ZM65.5916 20.784C65.5916 20.0587 65.7676 19.4027 66.1196 18.816C66.4823 18.2187 66.973 17.744 67.5916 17.392C68.2103 17.04 68.8983 16.864 69.6556 16.864C70.477 16.864 71.1916 17.0613 71.7996 17.456C72.4183 17.84 72.8983 18.4 73.2396 19.136C73.5916 19.8613 73.7676 20.736 73.7676 21.76C73.7676 23.2533 73.5916 24.496 73.2396 25.488C72.8876 26.48 72.3916 27.2213 71.7516 27.712C71.1116 28.2133 70.365 28.464 69.5116 28.464C68.7756 28.464 68.1036 28.2827 67.4956 27.92C66.8983 27.568 66.429 27.0773 66.0876 26.448L66.9516 25.6C67.1863 26.0907 67.533 26.4853 67.9916 26.784C68.461 27.0827 68.973 27.232 69.5276 27.232C70.1143 27.232 70.621 27.056 71.0476 26.704C71.485 26.352 71.821 25.8453 72.0556 25.184C72.301 24.5227 72.429 23.7227 72.4396 22.784C72.2903 23.1467 72.0663 23.4667 71.7676 23.744C71.4796 24.0213 71.1436 24.2347 70.7596 24.384C70.3756 24.5333 69.9596 24.608 69.5116 24.608C68.7863 24.608 68.125 24.4373 67.5276 24.096C66.9303 23.7547 66.4556 23.296 66.1036 22.72C65.7623 22.144 65.5916 21.4987 65.5916 20.784ZM69.6396 18.08C69.149 18.08 68.6956 18.2027 68.2796 18.448C67.8743 18.6933 67.549 19.0187 67.3036 19.424C67.0583 19.8293 66.9356 20.2827 66.9356 20.784C66.9356 21.2747 67.0583 21.7227 67.3036 22.128C67.549 22.5333 67.8743 22.8587 68.2796 23.104C68.6956 23.3493 69.149 23.472 69.6396 23.472C70.141 23.472 70.5943 23.3493 70.9996 23.104C71.405 22.8587 71.7303 22.5333 71.9756 22.128C72.221 21.7227 72.3436 21.2747 72.3436 20.784C72.3436 20.2933 72.221 19.8453 71.9756 19.44C71.7303 19.024 71.3996 18.6933 70.9836 18.448C70.5783 18.2027 70.1303 18.08 69.6396 18.08Z" fill="black"/>
<circle cx="122" cy="20" r="9.5" fill="#712E49" stroke="black"/>
</svg>
