<svg width="19" height="19" viewBox="0 0 19 19" fill="none" xmlns="http://www.w3.org/2000/svg">
<path fill-rule="evenodd" clip-rule="evenodd" d="M9.49996 2.31228C7.31384 2.31228 5.54163 4.03769 5.54163 6.16608C5.54163 8.29445 7.31384 10.0199 9.49996 10.0199C11.6861 10.0199 13.4583 8.29445 13.4583 6.16608C13.4583 4.03769 11.6861 2.31228 9.49996 2.31228ZM7.12496 6.16608C7.12496 4.88904 8.18825 3.8538 9.49996 3.8538C10.8117 3.8538 11.875 4.88904 11.875 6.16608C11.875 7.44311 10.8117 8.47835 9.49996 8.47835C8.18825 8.47835 7.12496 7.44311 7.12496 6.16608Z" fill="#FFEBEF"/>
<path d="M14.4767 3.11533C14.0579 2.9934 13.6168 3.22517 13.4915 3.63301C13.3663 4.04086 13.6043 4.47033 14.0233 4.59226C14.5431 4.74358 15.0417 5.33434 15.0417 6.16608C15.0417 6.99781 14.5431 7.58857 14.0233 7.73989C13.6043 7.86182 13.3663 8.29129 13.4915 8.6991C13.6168 9.10699 14.0579 9.33875 14.4767 9.21682C15.778 8.83807 16.625 7.5593 16.625 6.16608C16.625 4.77285 15.778 3.49409 14.4767 3.11533Z" fill="#FFEBEF"/>
<path fill-rule="evenodd" clip-rule="evenodd" d="M5.26013 11.4832C6.40885 10.9866 7.92153 10.7906 9.49996 10.7906C11.0784 10.7906 12.5911 10.9866 13.7398 11.4832C14.9108 11.9895 15.8333 12.8826 15.8333 14.2591C15.8333 14.6188 15.7658 15.0281 15.5145 15.4185C15.2631 15.8087 14.877 16.1042 14.3784 16.3238C13.4212 16.7454 11.8877 16.9567 9.49996 16.9567C7.11222 16.9567 5.57874 16.7454 4.62156 16.3238C4.12285 16.1042 3.73676 15.8087 3.48545 15.4185C3.23411 15.0281 3.16663 14.6188 3.16663 14.2591C3.16663 12.8826 4.08904 11.9895 5.26013 11.4832ZM5.9027 12.892C5.06808 13.2529 4.74996 13.7086 4.74996 14.2591C4.74996 14.4314 4.78144 14.529 4.82697 14.5997C4.87253 14.6705 4.98124 14.7903 5.27419 14.9194C5.90035 15.1951 7.1377 15.4152 9.49996 15.4152C11.8622 15.4152 13.0996 15.1951 13.7257 14.9194C14.0187 14.7903 14.1274 14.6705 14.1729 14.5997C14.2185 14.529 14.25 14.4314 14.25 14.2591C14.25 13.7086 13.9319 13.2529 13.0972 12.892C12.2402 12.5216 10.9821 12.3322 9.49996 12.3322C8.0178 12.3322 6.75966 12.5216 5.9027 12.892Z" fill="#FFEBEF"/>
<path d="M16.1853 10.1002C15.7936 9.91096 15.3185 10.0667 15.1242 10.448C14.9298 10.8293 15.0898 11.2919 15.4815 11.4811C16.249 11.8519 16.625 12.3674 16.625 13.1029C16.625 13.5286 16.9795 13.8737 17.4167 13.8737C17.8539 13.8737 18.2084 13.5286 18.2084 13.1029C18.2084 11.6586 17.3679 10.6716 16.1853 10.1002Z" fill="#FFEBEF"/>
</svg>
